HIERARCHY
ROOT Hips
{
	OFFSET 0.000000 0.000000 0.000000 
	CHANNELS 6 Xposition Yposition Zposition Zrotation Yrotation Xrotation
	JOINT LeftUpLeg
	{
		OFFSET 1.363060 -1.794630 0.839290 
		CHANNELS 3 Zrotation Yrotation Xrotation
		JOINT LeftLeg
		{
			OFFSET 2.448110 -6.726130 0.000000 
			CHANNELS 3 Zrotation Yrotation Xrotation
			JOINT LeftFoot
			{
				OFFSET 2.562200 -7.039590 0.000000 
				CHANNELS 3 Zrotation Yrotation Xrotation
				JOINT LeftToeBase
				{
					OFFSET 0.157640 -0.433110 2.322550 
					CHANNELS 3 Zrotation Yrotation Xrotation
					End Site
					{
						OFFSET 0.000000 0.000000 0.000000 
					}
				}
			}
		}
	}
	JOINT RightUpLeg
	{
		OFFSET -1.305520 -1.794630 0.839290 
		CHANNELS 3 Zrotation Yrotation Xrotation
		JOINT RightLeg
		{
			OFFSET -2.542530 -6.985550 0.000000 
			CHANNELS 3 Zrotation Yrotation Xrotation
			JOINT RightFoot
			{
				OFFSET -2.568260 -7.056230 0.000000 
				CHANNELS 3 Zrotation Yrotation Xrotation
				JOINT RightToeBase
				{
					OFFSET -0.164730 -0.452590 2.363150 
					CHANNELS 3 Zrotation Yrotation Xrotation
					End Site
					{
						OFFSET 0.000000 0.000000 0.000000 
					}
				}
			}
		}
	}
	JOINT Spine
	{
		OFFSET 0.028270 2.035590 -0.193380 
		CHANNELS 3 Zrotation Yrotation Xrotation
		JOINT Spine1
		{
			OFFSET 0.056720 2.048850 -0.042750 
			CHANNELS 3 Zrotation Yrotation Xrotation
			JOINT Neck1
			{
				OFFSET -0.054170 1.746240 0.172020 
				CHANNELS 3 Zrotation Yrotation Xrotation
				JOINT Head
				{
					OFFSET 0.104070 1.761360 -0.123970 
					CHANNELS 3 Zrotation Yrotation Xrotation
					End Site
					{
						OFFSET 0.000000 0.000000 0.000000 
					}
				}
			}
			JOINT LeftArm
			{
				OFFSET 3.362410 1.200890 -0.311210 
				CHANNELS 3 Zrotation Yrotation Xrotation
				JOINT LeftForeArm
				{
					OFFSET 4.983000 -0.000000 -0.000000 
					CHANNELS 3 Zrotation Yrotation Xrotation
					JOINT LeftHand
					{
						OFFSET 3.483560 -0.000000 -0.000000 
						CHANNELS 3 Zrotation Yrotation Xrotation
						JOINT LeftHandIndex1
						{
							OFFSET 0.715260 -0.000000 -0.000000 
							CHANNELS 3 Zrotation Yrotation Xrotation
							End Site
							{
								OFFSET 0.000000 0.000000 0.000000 
							}
						}
					}
				}
			}
			JOINT RightArm
			{
				OFFSET -3.136600 1.374050 -0.404650 
				CHANNELS 3 Zrotation Yrotation Xrotation
				JOINT RightForeArm
				{
					OFFSET -5.241900 -0.000000 -0.000000 
					CHANNELS 3 Zrotation Yrotation Xrotation
					JOINT RightHand
					{
						OFFSET -3.444170 -0.000000 -0.000000 
						CHANNELS 3 Zrotation Yrotation Xrotation
						JOINT RightHandIndex1
						{
							OFFSET -0.622530 -0.000000 -0.000000 
							CHANNELS 3 Zrotation Yrotation Xrotation
							End Site
							{
								OFFSET 0.000000 0.000000 0.000000 
							}
						}
					}
				}
			}
		}
	}
}
MOTION
Frames: 18
Frame Time: 0.041667
8.820389 17.652563 31.485983 -173.665380 -0.813614 -175.361002 -9.190330 -1.000625 -9.263019 2.380411 11.207595 30.780723 1.221755 -8.434992 -17.448830 0.002900 0.350400 0.962900 27.124438 -0.658838 -9.209658 -2.663676 -11.570302 31.390984 -0.733751 -3.168816 -20.234683 -0.137100 -2.386700 6.575700 2.528233 0.201909 -4.276867 3.440601 0.064632 -2.234828 3.907706 -1.265742 15.119626 3.063300 -0.894300 11.142200 -91.595601 2.810852 26.265710 12.564528 -22.086880 -2.408834 0.520070 0.934763 4.940778 -7.125000 0.000000 0.000000 83.338789 -2.326951 17.952270 -13.808006 21.596494 -2.806136 0.101807 -0.206786 -4.741757 7.125000 0.000000 0.000000 
8.832473 17.646870 31.485783 -173.716182 -0.726397 -175.456735 -9.178728 -0.648873 -9.276244 2.392129 11.216971 30.808035 1.219509 -8.690900 -17.381955 0.001100 0.212100 0.582700 27.100242 -0.654362 -9.193150 -2.697287 -11.622583 31.568047 -0.733930 -3.132718 -20.184619 -0.156500 -2.549200 7.026200 2.636775 0.147268 -4.327639 3.846671 0.043710 -2.462091 3.631009 -0.912112 15.625411 2.972100 -0.759000 11.355100 -91.831270 2.985572 25.859848 12.671756 -22.252073 -2.444350 0.499278 0.941461 5.174847 -7.125000 0.000000 0.000000 83.054311 -2.471596 18.231856 -13.860667 21.655576 -2.822638 0.099451 -0.204267 -4.923756 7.125000 0.000000 0.000000 
8.840562 17.640379 31.484984 -174.067983 -0.625089 -175.565879 -9.569159 -0.663675 -9.138023 2.389179 11.234767 30.837827 1.215851 -8.481630 -17.425440 0.000000 0.026700 0.073300 26.695888 -0.852748 -9.176311 -2.722291 -11.662317 31.698091 -0.738381 -3.055238 -20.120124 -0.151600 -2.508700 6.913800 2.657393 0.064386 -4.303026 4.173469 0.012465 -2.426688 3.741224 -0.549069 16.218687 3.131100 -0.607100 11.664500 -91.990909 2.985334 25.564877 12.658431 -22.240161 -2.435909 0.480735 0.927487 5.531379 -7.125000 0.000000 0.000000 82.803569 -2.456478 18.805044 -13.891380 21.699640 -2.833967 0.095549 -0.204558 -5.051186 7.125000 0.000000 0.000000 
8.848451 17.638682 31.484984 -174.228901 -0.609975 -175.718788 -9.757526 -0.784768 -8.944874 2.399443 11.265859 30.920735 1.223459 -8.388576 -17.531354 0.000200 0.084100 0.231000 26.518976 -0.887143 -9.037548 -2.739039 -11.697174 31.796057 -0.760488 -2.958208 -20.213065 -0.179700 -2.730200 7.528500 2.527110 0.112492 -4.167206 3.875796 0.036409 -2.072558 3.911955 -0.501177 16.763612 3.237300 -0.557200 11.994400 -91.602976 2.613885 25.768907 12.564948 -22.093691 -2.398740 0.451852 0.940838 5.657416 -7.125000 0.000000 0.000000 83.125321 -2.157469 18.715247 -13.879065 21.697142 -2.832451 0.091466 -0.207449 -4.900275 7.125000 0.000000 0.000000 
8.856341 17.636584 31.485184 -174.235791 -0.646941 -175.870167 -9.726676 -0.777636 -8.851947 2.430035 11.302606 31.042689 1.228670 -8.777480 -17.505093 0.015400 0.801900 2.203900 26.542086 -0.973395 -8.921097 -2.746874 -11.719154 31.853530 -0.749771 -3.060155 -20.248404 -0.184600 -2.767500 7.632000 2.475045 0.137563 -4.101915 3.697324 0.049592 -1.958125 3.672438 -0.399226 17.317161 3.100500 -0.502200 12.285900 -91.401045 2.422969 25.788381 12.525329 -22.030908 -2.381002 0.409936 0.970327 5.726408 -7.125000 0.000000 0.000000 83.310937 -2.019536 18.568541 -13.870202 21.685910 -2.829285 0.091056 -0.207628 -4.915310 7.125000 0.000000 0.000000 
8.863132 17.629294 31.485683 -174.151383 -0.727836 -175.935440 -9.577960 -0.742903 -8.877295 2.456860 11.330117 31.143603 1.233104 -9.095603 -17.477892 0.026800 1.057700 2.907600 26.689587 -1.025466 -8.902267 -2.757259 -11.742105 31.923852 -0.734572 -3.219673 -20.317636 -0.162500 -2.597300 7.159600 2.498228 0.171906 -4.089580 3.700534 0.067177 -1.990615 3.313451 -0.298049 17.796797 2.907100 -0.465300 12.529200 -91.400647 2.382719 25.826946 12.570237 -22.099505 -2.396371 0.411504 0.968446 5.770544 -7.125000 0.000000 0.000000 83.274467 -1.958622 18.629212 -13.808137 21.599055 -2.807118 0.087912 -0.213192 -4.927549 7.125000 0.000000 0.000000 
8.873318 17.622603 31.485384 -174.043391 -0.778729 -176.031227 -9.406162 -0.647416 -8.858050 2.471245 11.352060 31.218162 1.243200 -9.044773 -17.565054 0.002200 0.302300 0.830600 26.893294 -0.872055 -8.770718 -2.771587 -11.770376 32.011254 -0.737688 -3.283585 -20.440140 -0.193600 -2.833600 7.815800 2.523160 0.248368 -4.105041 3.725133 0.104328 -2.143506 3.125393 -0.221199 18.339438 2.813100 -0.424700 12.827300 -91.366906 2.364990 25.904038 12.638909 -22.195286 -2.419236 0.407015 0.976118 5.657476 -7.125000 0.000000 0.000000 83.282265 -1.931906 18.504045 -13.714893 21.464885 -2.772789 0.082504 -0.218692 -4.716026 7.125000 0.000000 0.000000 
8.886600 17.614514 31.483886 -174.086340 -0.788431 -176.199559 -9.419865 -0.577581 -8.696396 2.473978 11.370853 31.264757 1.244052 -8.765322 -17.635468 0.003600 -0.386900 -1.063000 26.900988 -0.748287 -8.550828 -2.789341 -11.800340 32.101617 -0.802142 -2.977283 -20.663803 -0.260300 -3.282200 9.065400 2.533414 0.267151 -4.122227 3.807057 0.116142 -2.316335 3.024327 -0.024415 18.884659 2.787400 -0.323100 13.081600 -91.344516 2.436852 25.845242 12.680617 -22.255051 -2.433342 0.396410 0.987231 5.652358 -7.125000 0.000000 0.000000 83.325345 -2.049660 18.482077 -13.736511 21.486693 -2.778129 0.082688 -0.214980 -4.660762 7.125000 0.000000 0.000000 
8.899283 17.606725 31.482687 -174.178642 -0.869882 -176.352636 -9.494253 -0.670535 -8.479511 2.466652 11.372346 31.252488 1.241630 -8.607751 -17.659766 0.002000 -0.290300 -0.797600 26.853381 -0.731406 -8.394860 -2.806222 -11.833258 32.200080 -0.835359 -2.897698 -20.885545 -0.284700 -3.431400 9.482300 2.540778 0.224913 -4.107127 3.895459 0.098951 -2.368500 2.919725 0.207440 19.305480 2.770100 -0.212600 13.235200 -91.341575 2.494633 25.747878 12.737821 -22.343722 -2.453825 0.383370 1.004684 5.911561 -7.125000 0.000000 0.000000 83.324933 -2.163206 18.731161 -13.796560 21.567374 -2.798741 0.086904 -0.210836 -4.868067 7.125000 0.000000 0.000000 
8.910268 17.604228 31.480091 -174.152550 -0.954253 -176.550285 -9.427070 -0.708001 -8.231398 2.464551 11.366913 31.224564 1.239153 -8.784965 -17.612014 0.001100 0.218700 0.600800 26.937742 -0.982166 -8.318488 -2.818792 -11.868472 32.296578 -0.777906 -3.260783 -20.817468 -0.263500 -3.302100 9.121100 2.497677 0.245821 -4.000323 3.733136 0.108286 -2.163739 2.842055 0.302920 19.694182 2.741000 -0.154400 13.415800 -91.163501 2.283025 25.962904 12.753169 -22.365343 -2.458015 0.394399 0.990433 5.894288 -7.125000 0.000000 0.000000 83.492468 -1.905655 18.572256 -13.751863 21.510760 -2.781537 0.087830 -0.207208 -5.138161 7.125000 0.000000 0.000000 
8.923550 17.604128 31.477594 -174.185798 -1.015455 -176.695393 -9.434240 -0.740275 -8.064701 2.479120 11.389226 31.288498 1.226580 -8.925210 -17.492229 0.005000 0.457000 1.255800 26.936607 -1.171821 -8.227882 -2.820266 -11.881002 32.315621 -0.795911 -3.189884 -20.901029 -0.274700 -3.371100 9.313600 2.314308 0.350083 -3.772740 3.198572 0.156827 -1.544425 3.328055 -0.431165 19.850521 2.651300 -1.658300 13.500200 -90.521056 1.705565 26.967322 12.737805 -22.325773 -2.444998 0.399495 0.968002 5.076429 -7.125000 0.000000 0.000000 84.097709 -1.212516 17.957247 -13.602890 21.321519 -2.728162 0.092572 -0.206301 -4.984886 7.125000 0.000000 0.000000 
8.939528 17.601432 31.478393 -174.285716 -1.132625 -176.762922 -9.448091 -0.813548 -8.111250 2.514221 11.434921 31.450232 1.204775 -9.071635 -17.284224 0.007800 0.571600 1.570800 26.916869 -1.183272 -8.152105 -2.810714 -11.858642 32.253944 -0.845307 -2.991634 -21.115438 -0.271900 -3.353800 9.265500 2.462320 0.363445 -4.036560 3.810141 0.170142 -2.526732 3.053967 -0.144341 20.469598 2.523800 -1.677200 13.751200 -90.884109 2.361914 27.182123 12.827641 -22.455115 -2.474822 0.386288 0.978752 4.750696 -7.125000 0.000000 0.000000 83.725859 -1.909065 18.218500 -13.590727 21.267658 -2.720614 0.099959 -0.215231 -4.803141 7.125000 0.000000 0.000000 
8.955806 17.599435 31.477494 -173.990369 -1.268644 -176.711012 -9.038398 -0.888745 -8.262147 2.564077 11.502715 31.686968 1.205423 -9.176783 -17.250277 0.009300 0.624200 1.715300 27.311553 -1.511728 -8.286892 -2.784090 -11.824624 32.123049 -0.816678 -3.098776 -20.983169 -0.189800 -2.805500 7.737800 2.434293 0.313443 -3.625136 3.482438 0.139937 -1.135870 2.993350 -0.037064 20.425867 2.493000 -1.605600 13.655500 -90.568985 1.342831 27.536173 12.811995 -22.472772 -2.473401 0.426546 0.936922 4.327063 -7.125000 0.000000 0.000000 83.998444 -0.879673 17.983039 -13.464843 21.136308 -2.681880 0.102592 -0.218643 -4.428814 7.125000 0.000000 0.000000 
8.969188 17.594841 31.472701 -173.707558 -1.345877 -176.841031 -8.693314 -1.133856 -8.194636 2.619437 11.595861 32.004761 1.249394 -8.877102 -17.661580 -0.000000 0.044000 0.120900 27.670103 -1.992384 -8.259124 -2.747501 -11.766270 31.922773 -0.800098 -3.067883 -20.780600 -0.134800 -2.366100 6.518500 2.532409 0.337237 -3.746323 3.615045 0.144773 -1.646486 2.923045 0.203309 21.003847 2.474600 -1.606500 13.917000 -90.709551 1.718738 27.584487 12.890428 -22.582903 -2.504335 0.456458 0.925275 4.009163 -7.125000 0.000000 0.000000 83.886090 -1.297957 17.931042 -13.540307 21.232315 -2.706988 0.095807 -0.214557 -4.365418 7.125000 0.000000 0.000000 
8.976578 17.587151 31.466709 -173.660664 -1.409304 -177.025632 -8.680988 -1.503535 -8.007191 2.683644 11.715460 32.388319 1.291738 -8.573505 -18.088751 0.007700 -0.568300 -1.561600 27.724918 -2.111848 -7.854382 -2.699221 -11.694091 31.658232 -0.845874 -2.738912 -20.792860 -0.188600 -2.796900 7.713900 2.524788 0.424088 -3.675817 3.551077 0.184736 -1.584000 2.946663 0.202579 21.473971 2.490700 -1.665500 14.213400 -90.705408 1.482928 27.364010 12.872797 -22.563265 -2.500323 0.431411 0.969153 4.740031 -7.125000 0.000000 0.000000 83.935077 -1.206342 17.550506 -13.595405 21.315608 -2.728947 0.087788 -0.214289 -4.103480 7.125000 0.000000 0.000000 
8.984867 17.582657 31.460917 -173.545087 -1.438474 -177.123105 -8.541311 -1.630035 -8.035391 2.765670 11.839663 32.808325 1.300357 -8.526883 -18.173570 0.013200 -0.741300 -2.037200 27.867233 -2.038087 -7.455984 -2.647533 -11.611745 31.367161 -0.908217 -2.336921 -20.874355 -0.272600 -3.358300 9.277800 2.553835 0.429245 -3.578561 3.525080 0.183345 -1.374931 2.890266 0.306090 21.855244 2.487200 -1.687800 14.441900 -90.751756 1.214140 26.764090 12.917414 -22.635288 -2.516908 0.388444 1.016684 5.946792 -7.125000 0.000000 0.000000 83.883505 -1.138438 17.691989 -13.753834 21.547687 -2.790974 0.084677 -0.214981 -4.160308 7.125000 0.000000 0.000000 
8.999048 17.580660 31.454725 -173.212737 -1.424715 -177.204076 -8.122708 -1.550194 -8.172849 2.858640 11.966675 33.259363 1.297950 -8.418915 -18.161987 0.031400 -1.143000 -3.142400 28.262830 -2.324623 -7.312367 -2.594562 -11.522103 31.063531 -0.919562 -2.125542 -20.710011 -0.238400 -3.142500 8.675800 2.621832 0.521589 -3.589521 3.523246 0.221704 -1.506989 2.771406 0.456456 22.326572 2.426400 -1.707300 14.679600 -90.832168 1.331922 27.004683 12.944411 -22.675757 -2.527193 0.420231 0.989504 4.869943 -7.125000 0.000000 0.000000 83.832325 -1.490313 18.070181 -14.044996 21.950488 -2.899772 0.086009 -0.207643 -4.662799 7.125000 0.000000 0.000000 
9.016924 17.575866 31.452528 -172.778512 -1.498439 -177.317708 -7.592083 -1.759298 -8.233123 2.964762 12.106192 33.762332 1.295460 -8.381479 -18.130551 0.031100 -1.137600 -3.127600 28.819402 -2.693224 -7.231625 -2.536109 -11.424916 30.738468 -0.882977 -2.191934 -20.439364 -0.179600 -2.729500 7.526600 2.720070 0.618281 -3.637288 3.570526 0.259465 -1.797522 2.644465 0.623606 22.757916 2.346300 -1.711500 14.875800 -90.950729 1.459740 26.831432 13.013201 -22.768295 -2.548941 0.418828 0.977624 5.043802 -7.125000 0.000000 0.000000 83.772991 -1.861803 18.364967 -14.267078 22.247134 -2.980932 0.087070 -0.196931 -5.105146 7.125000 0.000000 0.000000 
